<?xml version="1.0" encoding="UTF-8" standalone="no"?>
<svg
   xmlns:dc="http://purl.org/dc/elements/1.1/"
   xmlns:cc="http://creativecommons.org/ns#"
   xmlns:rdf="http://www.w3.org/1999/02/22-rdf-syntax-ns#"
   xmlns:svg="http://www.w3.org/2000/svg"
   xmlns="http://www.w3.org/2000/svg"
   xmlns:sodipodi="http://sodipodi.sourceforge.net/DTD/sodipodi-0.dtd"
   xmlns:inkscape="http://www.inkscape.org/namespaces/inkscape"
   id="svg2"
   version="1.1"
   inkscape:version="0.91 r13725"
   sodipodi:docname="chart.svg"
   width="32"
   height="32"
   inkscape:export-filename="C:\Users\Chris\Desktop\Programming\charts\public\green-chart.png"
   inkscape:export-xdpi="90"
   inkscape:export-ydpi="90">
  <metadata
     id="metadata10">
    <rdf:RDF>
      <cc:Work
         rdf:about="">
        <dc:format>image/svg+xml</dc:format>
        <dc:type
           rdf:resource="http://purl.org/dc/dcmitype/StillImage" />
        <dc:title></dc:title>
      </cc:Work>
    </rdf:RDF>
  </metadata>
  <defs
     id="defs8" />
  <sodipodi:namedview
     pagecolor="#ffffff"
     bordercolor="#666666"
     borderopacity="1"
     objecttolerance="10"
     gridtolerance="10"
     guidetolerance="10"
     inkscape:pageopacity="0"
     inkscape:pageshadow="2"
     inkscape:window-width="1536"
     inkscape:window-height="841"
     id="namedview6"
     showgrid="false"
     inkscape:zoom="8.5913474"
     inkscape:cx="8.4465645"
     inkscape:cy="13.746929"
     inkscape:window-x="1592"
     inkscape:window-y="-8"
     inkscape:window-maximized="1"
     inkscape:current-layer="svg2" />
  <path
     class="path1"
     d="m 3.999999,28.000001 28.000001,0 0,4 -32,0 L 0,-1e-6 l 3.999999,0 z m 5,-2 c -1.657,0 -3,-1.343 -3,-3 0,-1.657 1.343,-3 3,-3 0.088,0 0.176,0.005 0.262,0.012 l 3.225,-5.375 c -0.307,-0.471 -0.486999,-1.033 -0.486999,-1.638 0,-1.657 1.342999,-3 3,-3 1.656999,0 3,1.343 3,3 0,0.604 -0.179001,1.167 -0.487001,1.638 l 3.225,5.375 c 0.086,-0.007 0.174,-0.012 0.262001,-0.012 0.067,0 0.133,0.003 0.198,0.007 l 5.323999,-9.316 C 26.192999,10.209001 26,9.627001 26,9.000001 c 0,-1.657 1.342999,-3 3,-3 1.657,0 3,1.343 3,3 0,1.657 -1.343,3 -3,3 -0.067,0 -0.133001,-0.003 -0.198001,-0.007 l -5.323999,9.316 c 0.329,0.481 0.522,1.064 0.522,1.691 0,1.657 -1.343,3 -3,3 -1.657,0 -3,-1.343 -3,-3 0,-0.604 0.179,-1.167 0.486999,-1.638 l -3.224999,-5.375 c -0.086,0.007 -0.174001,0.012 -0.262,0.012 -0.088,0 -0.176001,-0.005 -0.262001,-0.012 l -3.225,5.375 c 0.307,0.471 0.487,1.033 0.487,1.637 0,1.657 -1.343,3 -3,3 z"
     id="path4"
     inkscape:connector-curvature="0"
     style="fill:#4caf50;fill-opacity:1"
     inkscape:export-xdpi="37.900002"
     inkscape:export-ydpi="37.900002" />
</svg>
